# xmcd
#
# Track frame offsets:
#	150
#	11678
#	25025
#	37370
#	48808
#	61273
#	70095
#	82208
#	93800
#	105565
#	116748
#	125495
#	139488
#	150988
#	166170
#	177208
#
# Disc length: 2476
#
# Revision: 2
# Processed by: cddbd v1.5.1PL0 Copyright (c) Steve Scherf et al.
# Submitted via: ExactAudioCopy v0.95a3
# Normalized: r0:TDELIM( - ),TSWAP
#
DISCID=cf09aa10
DTITLE=Various Artist - 16 all time country greats 02
DYEAR=1900
DGENRE=Country
TTITLE0=freddy fender - before the next teardrop falls
TTITLE1=jimmy dean - big bad john
TTITLE2=kenny rogers - reuben james
TTITLE3=frankie laine - mule train
TTITLE4=johnny cash - folsom prison song
TTITLE5=jewel akens - birds and the bees
TTITLE6=dolly parton - two little orphans
TTITLE7=willie nelson - december days
TTITLE8=waylon jennings - crying
TTITLE9=donna fargo - wishful thiking
TTITLE10=bob luman - let's think about living
TTITLE11=b j thomas - i'mso lonesome i could cry
TTITLE12=george jones - white lightning
TTITLE13=anne murray - both sides now
TTITLE14=patsy cline - stop the world and let me off
TTITLE15=waylon jennings - abilene
EXTD=
EXTT0=
EXTT1=
EXTT2=
EXTT3=
EXTT4=
EXTT5=
EXTT6=
EXTT7=
EXTT8=
EXTT9=
EXTT10=
EXTT11=
EXTT12=
EXTT13=
EXTT14=
EXTT15=
PLAYORDER=
